# xmcd
#
# Track frame offsets:
#	150
#	5319
#	26004
#	50085
#	72403
#	90870
#	114078
#	142648
#	150336
#	176688
#	194227
#
# Disc length: 3197 seconds
#
# Revision: 0
# Processed by: cddbd v1.5.2PL0 Copyright (c) Steve Scherf et al.
# Submitted via: EasyCDDAExtractor 11.0.2.1
#
DISCID=830c7b0b
DTITLE=Wentus Blues Band - Family Meeting CD1
DYEAR=2007
DGENRE=Blues
TTITLE0=Intro: Going to the show
TTITLE1=Moonshine
TTITLE2=You gonna make me cry
TTITLE3=Since I been loving you
TTITLE4=I got to go
TTITLE5=Passenger blues
TTITLE6=Pick up the pieces
TTITLE7=Lonesome fugitive
TTITLE8=Angel blues
TTITLE9=Stop twistin' my arm
TTITLE10=Can't you hear me knocking
EXTD=
EXTT0=
EXTT1=
EXTT2=
EXTT3=
EXTT4=
EXTT5=
EXTT6=
EXTT7=
EXTT8=
EXTT9=
EXTT10=
PLAYORDER=
